<?xml version="1.0" encoding="UTF-8"?>
<svg xmlns="http://www.w3.org/2000/svg" xmlns:xlink="http://www.w3.org/1999/xlink" width="70.3709pt" height="15.8552pt" viewBox="0 0 70.3709 15.8552" version="1.1">
<g id="surface1">
<path style=" stroke:none;fill-rule:nonzero;fill:rgb(93.666077%,15.000916%,61.665344%);fill-opacity:1;" d="M 5.964844 7.136719 L 7.15625 4.589844 C 7.171875 4.546875 7.191406 4.519531 7.203125 4.5 C 7.21875 4.484375 7.230469 4.46875 7.242188 4.460938 C 7.253906 4.453125 7.269531 4.449219 7.285156 4.445312 C 7.300781 4.445312 7.316406 4.441406 7.335938 4.433594 L 9.234375 4.433594 C 9.257812 4.433594 9.277344 4.441406 9.292969 4.457031 C 9.308594 4.472656 9.316406 4.488281 9.316406 4.507812 C 9.316406 4.546875 9.289062 4.585938 9.246094 4.632812 L 6.90625 8.769531 L 6.90625 11.523438 C 6.90625 11.679688 6.832031 11.757812 6.683594 11.757812 L 5.207031 11.757812 C 5.140625 11.757812 5.089844 11.738281 5.054688 11.695312 C 5.019531 11.652344 5 11.597656 5 11.523438 L 5 8.757812 L 2.667969 4.632812 C 2.625 4.589844 2.605469 4.546875 2.605469 4.507812 C 2.605469 4.488281 2.609375 4.472656 2.621094 4.457031 C 2.636719 4.441406 2.652344 4.433594 2.675781 4.433594 L 4.574219 4.433594 C 4.597656 4.441406 4.617188 4.445312 4.628906 4.445312 C 4.644531 4.449219 4.65625 4.453125 4.667969 4.460938 C 4.683594 4.46875 4.695312 4.484375 4.707031 4.5 C 4.722656 4.519531 4.738281 4.546875 4.761719 4.589844 Z M 5.964844 7.136719 "/>
<path style=" stroke:none;fill-rule:nonzero;fill:rgb(93.666077%,15.000916%,61.665344%);fill-opacity:1;" d="M 15.84375 11.671875 C 15.800781 11.710938 15.753906 11.734375 15.707031 11.742188 C 15.660156 11.753906 15.613281 11.757812 15.570312 11.757812 L 14.828125 11.757812 C 14.765625 11.757812 14.714844 11.746094 14.675781 11.726562 C 14.632812 11.703125 14.59375 11.675781 14.566406 11.640625 C 14.535156 11.605469 14.511719 11.5625 14.492188 11.515625 C 14.472656 11.46875 14.457031 11.421875 14.441406 11.375 L 14.339844 10.890625 C 14.289062 10.992188 14.207031 11.101562 14.09375 11.214844 C 13.976562 11.328125 13.835938 11.429688 13.664062 11.527344 C 13.496094 11.621094 13.300781 11.699219 13.082031 11.761719 C 12.859375 11.824219 12.621094 11.855469 12.359375 11.855469 C 11.984375 11.855469 11.652344 11.785156 11.363281 11.636719 C 11.078125 11.492188 10.832031 11.296875 10.632812 11.046875 C 10.433594 10.796875 10.28125 10.503906 10.183594 10.171875 C 10.082031 9.839844 10.027344 9.484375 10.027344 9.105469 L 10.027344 5.875 C 10.027344 5.75 10.054688 5.65625 10.109375 5.589844 C 10.164062 5.527344 10.25 5.496094 10.371094 5.496094 L 11.507812 5.496094 C 11.648438 5.496094 11.746094 5.519531 11.800781 5.566406 C 11.851562 5.613281 11.878906 5.707031 11.878906 5.84375 L 11.878906 9.058594 C 11.878906 9.199219 11.90625 9.335938 11.960938 9.460938 C 12.011719 9.585938 12.085938 9.699219 12.179688 9.796875 C 12.269531 9.894531 12.378906 9.96875 12.503906 10.027344 C 12.625 10.082031 12.757812 10.109375 12.894531 10.109375 C 13.011719 10.109375 13.140625 10.089844 13.277344 10.050781 C 13.417969 10.011719 13.542969 9.949219 13.664062 9.867188 C 13.78125 9.78125 13.878906 9.671875 13.960938 9.542969 C 14.039062 9.410156 14.078125 9.253906 14.078125 9.070312 L 14.078125 5.859375 C 14.078125 5.804688 14.089844 5.75 14.109375 5.691406 C 14.128906 5.636719 14.164062 5.59375 14.207031 5.5625 C 14.25 5.539062 14.289062 5.519531 14.328125 5.507812 C 14.363281 5.5 14.40625 5.496094 14.457031 5.496094 L 15.570312 5.496094 C 15.710938 5.496094 15.8125 5.53125 15.878906 5.597656 C 15.9375 5.667969 15.96875 5.757812 15.96875 5.875 L 15.96875 11.394531 C 15.96875 11.453125 15.957031 11.511719 15.929688 11.566406 C 15.902344 11.617188 15.863281 11.660156 15.8125 11.6875 Z M 15.84375 11.671875 "/>
<path style=" stroke:none;fill-rule:nonzero;fill:rgb(93.666077%,15.000916%,61.665344%);fill-opacity:1;" d="M 17.28125 5.582031 C 17.324219 5.546875 17.367188 5.523438 17.417969 5.515625 C 17.464844 5.503906 17.511719 5.5 17.554688 5.5 L 18.296875 5.5 C 18.355469 5.5 18.40625 5.511719 18.449219 5.53125 C 18.492188 5.554688 18.527344 5.582031 18.558594 5.617188 C 18.589844 5.652344 18.613281 5.695312 18.628906 5.742188 C 18.648438 5.785156 18.664062 5.832031 18.683594 5.882812 L 18.785156 6.316406 C 18.835938 6.214844 18.90625 6.109375 18.996094 6 C 19.089844 5.894531 19.207031 5.792969 19.347656 5.707031 C 19.488281 5.617188 19.65625 5.542969 19.851562 5.488281 C 20.050781 5.429688 20.277344 5.402344 20.542969 5.402344 C 20.75 5.402344 20.9375 5.421875 21.105469 5.460938 C 21.273438 5.503906 21.429688 5.5625 21.570312 5.644531 C 21.710938 5.726562 21.835938 5.824219 21.949219 5.9375 C 22.066406 6.054688 22.175781 6.1875 22.277344 6.339844 C 22.339844 6.238281 22.433594 6.132812 22.554688 6.019531 C 22.679688 5.910156 22.824219 5.808594 22.996094 5.714844 C 23.167969 5.625 23.359375 5.546875 23.570312 5.488281 C 23.777344 5.429688 24.003906 5.402344 24.238281 5.402344 C 24.613281 5.402344 24.941406 5.472656 25.21875 5.617188 C 25.5 5.761719 25.730469 5.957031 25.917969 6.207031 C 26.105469 6.457031 26.242188 6.75 26.335938 7.082031 C 26.425781 7.414062 26.472656 7.769531 26.472656 8.148438 L 26.472656 11.378906 C 26.472656 11.503906 26.445312 11.597656 26.390625 11.660156 C 26.335938 11.726562 26.25 11.757812 26.132812 11.757812 L 24.992188 11.757812 C 24.851562 11.757812 24.753906 11.734375 24.703125 11.683594 C 24.648438 11.636719 24.625 11.542969 24.625 11.40625 L 24.625 8.148438 C 24.625 8.007812 24.601562 7.875 24.558594 7.753906 C 24.511719 7.632812 24.449219 7.523438 24.371094 7.433594 C 24.292969 7.34375 24.195312 7.273438 24.085938 7.222656 C 23.96875 7.171875 23.84375 7.144531 23.707031 7.144531 C 23.582031 7.144531 23.464844 7.171875 23.351562 7.21875 C 23.238281 7.269531 23.140625 7.339844 23.054688 7.425781 C 22.96875 7.511719 22.902344 7.617188 22.851562 7.742188 C 22.800781 7.863281 22.773438 8 22.773438 8.148438 L 22.773438 11.378906 C 22.773438 11.503906 22.746094 11.597656 22.691406 11.660156 C 22.640625 11.726562 22.554688 11.757812 22.433594 11.757812 L 21.296875 11.757812 C 21.152344 11.757812 21.058594 11.734375 21.003906 11.683594 C 20.953125 11.636719 20.925781 11.542969 20.925781 11.40625 L 20.925781 8.148438 C 20.925781 8.007812 20.90625 7.875 20.863281 7.753906 C 20.824219 7.632812 20.761719 7.523438 20.6875 7.433594 C 20.609375 7.34375 20.515625 7.273438 20.40625 7.222656 C 20.296875 7.171875 20.171875 7.144531 20.03125 7.144531 C 19.914062 7.144531 19.800781 7.171875 19.683594 7.21875 C 19.570312 7.265625 19.46875 7.332031 19.378906 7.421875 C 19.289062 7.507812 19.214844 7.613281 19.152344 7.734375 C 19.09375 7.855469 19.058594 7.992188 19.046875 8.136719 L 19.046875 11.390625 C 19.046875 11.449219 19.035156 11.503906 19.015625 11.558594 C 18.992188 11.617188 18.960938 11.660156 18.917969 11.6875 C 18.875 11.714844 18.835938 11.730469 18.796875 11.742188 C 18.761719 11.753906 18.71875 11.757812 18.667969 11.757812 L 17.554688 11.757812 C 17.410156 11.757812 17.308594 11.722656 17.246094 11.652344 C 17.183594 11.585938 17.152344 11.492188 17.152344 11.378906 L 17.152344 5.863281 C 17.152344 5.800781 17.167969 5.746094 17.195312 5.691406 C 17.222656 5.640625 17.261719 5.597656 17.3125 5.566406 Z M 17.28125 5.582031 "/>
<path style=" stroke:none;fill-rule:nonzero;fill:rgb(93.666077%,15.000916%,61.665344%);fill-opacity:1;" d="M 27.789062 5.582031 C 27.832031 5.546875 27.878906 5.523438 27.925781 5.515625 C 27.972656 5.503906 28.019531 5.5 28.058594 5.5 L 28.804688 5.5 C 28.863281 5.5 28.914062 5.511719 28.957031 5.53125 C 29 5.554688 29.035156 5.582031 29.066406 5.617188 C 29.097656 5.652344 29.121094 5.695312 29.136719 5.742188 C 29.15625 5.785156 29.171875 5.832031 29.1875 5.882812 L 29.292969 6.316406 C 29.34375 6.214844 29.414062 6.109375 29.503906 6 C 29.597656 5.894531 29.714844 5.792969 29.855469 5.707031 C 29.996094 5.617188 30.164062 5.542969 30.359375 5.488281 C 30.554688 5.429688 30.785156 5.402344 31.046875 5.402344 C 31.253906 5.402344 31.445312 5.421875 31.613281 5.460938 C 31.78125 5.503906 31.9375 5.5625 32.078125 5.644531 C 32.214844 5.726562 32.34375 5.824219 32.457031 5.9375 C 32.574219 6.054688 32.683594 6.1875 32.785156 6.339844 C 32.847656 6.238281 32.9375 6.132812 33.0625 6.019531 C 33.1875 5.910156 33.332031 5.808594 33.503906 5.714844 C 33.675781 5.625 33.863281 5.546875 34.074219 5.488281 C 34.285156 5.429688 34.511719 5.402344 34.746094 5.402344 C 35.121094 5.402344 35.449219 5.472656 35.726562 5.617188 C 36.007812 5.761719 36.238281 5.957031 36.425781 6.207031 C 36.609375 6.457031 36.75 6.75 36.84375 7.082031 C 36.933594 7.414062 36.980469 7.769531 36.980469 8.148438 L 36.980469 11.378906 C 36.980469 11.503906 36.953125 11.597656 36.898438 11.660156 C 36.84375 11.726562 36.757812 11.757812 36.640625 11.757812 L 35.5 11.757812 C 35.359375 11.757812 35.261719 11.734375 35.210938 11.683594 C 35.15625 11.636719 35.132812 11.542969 35.132812 11.40625 L 35.132812 8.148438 C 35.132812 8.007812 35.109375 7.875 35.0625 7.753906 C 35.019531 7.632812 34.957031 7.523438 34.878906 7.433594 C 34.800781 7.34375 34.703125 7.273438 34.589844 7.222656 C 34.476562 7.171875 34.351562 7.144531 34.214844 7.144531 C 34.089844 7.144531 33.972656 7.171875 33.859375 7.21875 C 33.746094 7.269531 33.648438 7.339844 33.5625 7.425781 C 33.476562 7.511719 33.410156 7.617188 33.359375 7.742188 C 33.308594 7.863281 33.28125 8 33.28125 8.148438 L 33.28125 11.378906 C 33.28125 11.503906 33.253906 11.597656 33.199219 11.660156 C 33.144531 11.726562 33.058594 11.757812 32.941406 11.757812 L 31.804688 11.757812 C 31.660156 11.757812 31.5625 11.734375 31.511719 11.683594 C 31.460938 11.636719 31.433594 11.542969 31.433594 11.40625 L 31.433594 8.148438 C 31.433594 8.007812 31.414062 7.875 31.371094 7.753906 C 31.328125 7.632812 31.269531 7.523438 31.195312 7.433594 C 31.117188 7.34375 31.023438 7.273438 30.914062 7.222656 C 30.804688 7.171875 30.679688 7.144531 30.539062 7.144531 C 30.421875 7.144531 30.304688 7.171875 30.191406 7.21875 C 30.078125 7.265625 29.976562 7.332031 29.886719 7.421875 C 29.796875 7.507812 29.722656 7.613281 29.660156 7.734375 C 29.601562 7.855469 29.5625 7.992188 29.554688 8.136719 L 29.554688 11.390625 C 29.554688 11.449219 29.542969 11.503906 29.523438 11.558594 C 29.5 11.617188 29.46875 11.660156 29.425781 11.6875 C 29.382812 11.714844 29.34375 11.730469 29.304688 11.742188 C 29.269531 11.753906 29.222656 11.757812 29.175781 11.757812 L 28.058594 11.757812 C 27.917969 11.757812 27.816406 11.722656 27.753906 11.652344 C 27.691406 11.585938 27.660156 11.492188 27.660156 11.378906 L 27.660156 5.863281 C 27.660156 5.800781 27.675781 5.746094 27.703125 5.691406 C 27.730469 5.640625 27.769531 5.597656 27.820312 5.566406 Z M 27.789062 5.582031 "/>
<path style=" stroke:none;fill-rule:nonzero;fill:rgb(93.666077%,15.000916%,61.665344%);fill-opacity:1;" d="M 37.789062 5.96875 C 37.738281 5.835938 37.734375 5.722656 37.785156 5.632812 C 37.835938 5.535156 37.949219 5.488281 38.125 5.488281 L 39.339844 5.488281 C 39.421875 5.488281 39.492188 5.515625 39.542969 5.566406 C 39.597656 5.617188 39.636719 5.679688 39.664062 5.757812 L 41.058594 9.726562 L 42.421875 5.757812 C 42.460938 5.652344 42.503906 5.578125 42.5625 5.542969 C 42.617188 5.507812 42.695312 5.488281 42.792969 5.488281 L 44.058594 5.488281 C 44.152344 5.488281 44.222656 5.503906 44.277344 5.527344 C 44.332031 5.550781 44.367188 5.585938 44.386719 5.625 C 44.410156 5.667969 44.417969 5.714844 44.410156 5.761719 C 44.402344 5.816406 44.390625 5.863281 44.371094 5.914062 C 44.246094 6.222656 44.109375 6.5625 43.960938 6.925781 C 43.8125 7.292969 43.660156 7.675781 43.5 8.070312 C 43.339844 8.46875 43.179688 8.871094 43.015625 9.277344 C 42.851562 9.6875 42.691406 10.089844 42.535156 10.484375 C 42.378906 10.878906 42.226562 11.257812 42.082031 11.621094 C 41.9375 11.984375 41.804688 12.316406 41.6875 12.621094 C 41.566406 12.925781 41.460938 13.195312 41.371094 13.425781 C 41.285156 13.652344 41.21875 13.832031 41.171875 13.957031 L 41.183594 13.929688 C 41.164062 14.019531 41.121094 14.09375 41.0625 14.144531 C 41.003906 14.199219 40.929688 14.226562 40.84375 14.226562 L 39.707031 14.226562 C 39.558594 14.226562 39.457031 14.199219 39.402344 14.140625 C 39.347656 14.082031 39.320312 14 39.320312 13.886719 C 39.320312 13.84375 39.328125 13.8125 39.339844 13.789062 C 39.351562 13.765625 39.359375 13.75 39.367188 13.742188 L 40.140625 11.730469 Z M 37.789062 5.96875 "/>
<path style=" stroke:none;fill-rule:nonzero;fill:rgb(96.383667%,73.753357%,8.673096%);fill-opacity:1;" d="M 52.425781 9.46875 C 52.425781 9.371094 52.410156 9.273438 52.371094 9.171875 C 52.332031 9.074219 52.28125 8.988281 52.210938 8.910156 C 52.144531 8.832031 52.066406 8.769531 51.96875 8.71875 C 51.875 8.671875 51.777344 8.644531 51.667969 8.644531 L 50.363281 8.644531 L 50.363281 10.292969 L 51.667969 10.292969 C 51.777344 10.292969 51.875 10.269531 51.96875 10.222656 C 52.0625 10.175781 52.140625 10.117188 52.210938 10.039062 C 52.28125 9.960938 52.332031 9.871094 52.371094 9.773438 C 52.410156 9.675781 52.425781 9.574219 52.425781 9.46875 M 52.167969 6.605469 C 52.167969 6.507812 52.148438 6.414062 52.113281 6.328125 C 52.074219 6.242188 52.023438 6.167969 51.957031 6.101562 C 51.894531 6.035156 51.8125 5.984375 51.722656 5.945312 C 51.628906 5.90625 51.527344 5.890625 51.417969 5.890625 L 50.363281 5.890625 L 50.363281 7.320312 L 51.40625 7.320312 C 51.515625 7.320312 51.621094 7.300781 51.714844 7.265625 C 51.808594 7.234375 51.886719 7.183594 51.953125 7.117188 C 52.019531 7.054688 52.070312 6.980469 52.109375 6.894531 C 52.148438 6.804688 52.167969 6.710938 52.167969 6.605469 M 48.453125 4.660156 C 48.453125 4.59375 48.472656 4.535156 48.511719 4.496094 C 48.546875 4.453125 48.601562 4.433594 48.671875 4.433594 L 51.945312 4.433594 C 52.234375 4.433594 52.507812 4.488281 52.761719 4.601562 C 53.019531 4.710938 53.242188 4.859375 53.4375 5.054688 C 53.628906 5.246094 53.78125 5.472656 53.894531 5.730469 C 54.003906 5.988281 54.058594 6.265625 54.058594 6.558594 C 54.058594 6.804688 54.019531 7.035156 53.945312 7.246094 C 53.867188 7.460938 53.757812 7.648438 53.617188 7.816406 C 53.851562 8.035156 54.039062 8.292969 54.175781 8.59375 C 54.316406 8.890625 54.386719 9.207031 54.386719 9.542969 C 54.386719 9.84375 54.328125 10.125 54.210938 10.394531 C 54.097656 10.660156 53.941406 10.898438 53.746094 11.097656 C 53.550781 11.300781 53.324219 11.460938 53.0625 11.578125 C 52.800781 11.699219 52.523438 11.757812 52.234375 11.757812 L 48.671875 11.757812 C 48.605469 11.757812 48.550781 11.738281 48.511719 11.703125 C 48.472656 11.671875 48.453125 11.617188 48.453125 11.546875 Z M 48.453125 4.660156 "/>
<path style=" stroke:none;fill-rule:nonzero;fill:rgb(96.383667%,73.753357%,8.673096%);fill-opacity:1;" d="M 56.816406 8.628906 C 56.816406 8.847656 56.851562 9.050781 56.917969 9.238281 C 56.984375 9.429688 57.078125 9.59375 57.203125 9.730469 C 57.324219 9.867188 57.476562 9.976562 57.652344 10.058594 C 57.828125 10.136719 58.027344 10.179688 58.246094 10.179688 C 58.460938 10.179688 58.652344 10.136719 58.824219 10.058594 C 58.996094 9.976562 59.144531 9.867188 59.265625 9.730469 C 59.382812 9.59375 59.476562 9.429688 59.539062 9.238281 C 59.605469 9.050781 59.636719 8.847656 59.636719 8.628906 C 59.636719 8.421875 59.605469 8.21875 59.539062 8.03125 C 59.476562 7.839844 59.382812 7.671875 59.265625 7.527344 C 59.144531 7.382812 58.996094 7.269531 58.824219 7.183594 C 58.652344 7.097656 58.460938 7.058594 58.246094 7.058594 C 58.027344 7.058594 57.828125 7.097656 57.652344 7.183594 C 57.476562 7.269531 57.324219 7.382812 57.203125 7.527344 C 57.078125 7.671875 56.984375 7.839844 56.917969 8.03125 C 56.851562 8.21875 56.816406 8.421875 56.816406 8.628906 M 55.015625 8.628906 C 55.015625 8.328125 55.054688 8.039062 55.132812 7.757812 C 55.210938 7.480469 55.316406 7.21875 55.457031 6.980469 C 55.597656 6.742188 55.765625 6.527344 55.960938 6.332031 C 56.15625 6.132812 56.375 5.96875 56.613281 5.832031 C 56.855469 5.691406 57.113281 5.585938 57.390625 5.507812 C 57.667969 5.433594 57.957031 5.398438 58.261719 5.398438 C 58.707031 5.398438 59.128906 5.480469 59.519531 5.644531 C 59.914062 5.8125 60.253906 6.039062 60.546875 6.332031 C 60.835938 6.621094 61.066406 6.964844 61.234375 7.355469 C 61.40625 7.75 61.488281 8.171875 61.488281 8.628906 C 61.488281 8.933594 61.453125 9.222656 61.375 9.5 C 61.296875 9.777344 61.1875 10.039062 61.046875 10.277344 C 60.910156 10.519531 60.742188 10.734375 60.546875 10.929688 C 60.351562 11.125 60.132812 11.292969 59.894531 11.433594 C 59.652344 11.574219 59.394531 11.679688 59.121094 11.757812 C 58.847656 11.832031 58.558594 11.871094 58.261719 11.871094 C 57.957031 11.871094 57.667969 11.832031 57.390625 11.757812 C 57.113281 11.679688 56.855469 11.574219 56.613281 11.433594 C 56.375 11.292969 56.15625 11.125 55.960938 10.929688 C 55.765625 10.734375 55.597656 10.519531 55.457031 10.277344 C 55.316406 10.039062 55.210938 9.777344 55.132812 9.5 C 55.054688 9.222656 55.015625 8.933594 55.015625 8.628906 "/>
<path style=" stroke:none;fill-rule:nonzero;fill:rgb(96.383667%,73.753357%,8.673096%);fill-opacity:1;" d="M 61.550781 11.570312 C 61.539062 11.523438 61.546875 11.480469 61.574219 11.433594 C 61.601562 11.390625 61.625 11.351562 61.644531 11.324219 L 63.605469 8.554688 L 61.746094 5.914062 C 61.714844 5.871094 61.6875 5.824219 61.664062 5.777344 C 61.640625 5.726562 61.628906 5.679688 61.636719 5.640625 C 61.640625 5.597656 61.660156 5.566406 61.699219 5.535156 C 61.738281 5.507812 61.800781 5.496094 61.890625 5.496094 L 63.4375 5.496094 C 63.492188 5.496094 63.542969 5.519531 63.582031 5.566406 C 63.625 5.613281 63.671875 5.675781 63.722656 5.75 L 64.664062 7.273438 C 64.726562 7.1875 64.800781 7.074219 64.882812 6.9375 C 64.964844 6.800781 65.050781 6.660156 65.136719 6.511719 C 65.222656 6.367188 65.308594 6.222656 65.386719 6.085938 C 65.46875 5.949219 65.539062 5.832031 65.597656 5.738281 C 65.652344 5.652344 65.703125 5.589844 65.753906 5.550781 C 65.800781 5.511719 65.859375 5.496094 65.921875 5.496094 L 67.488281 5.496094 C 67.527344 5.496094 67.5625 5.503906 67.597656 5.519531 C 67.632812 5.535156 67.660156 5.558594 67.679688 5.589844 C 67.699219 5.617188 67.707031 5.652344 67.703125 5.691406 C 67.699219 5.730469 67.679688 5.773438 67.640625 5.820312 L 65.710938 8.542969 L 67.628906 11.222656 C 67.667969 11.28125 67.703125 11.339844 67.730469 11.402344 C 67.757812 11.464844 67.769531 11.523438 67.765625 11.574219 C 67.765625 11.628906 67.738281 11.671875 67.695312 11.707031 C 67.652344 11.738281 67.578125 11.757812 67.46875 11.757812 L 65.875 11.757812 C 65.726562 11.757812 65.617188 11.671875 65.542969 11.5 L 64.664062 9.921875 L 63.777344 11.519531 C 63.742188 11.59375 63.695312 11.652344 63.640625 11.691406 C 63.585938 11.734375 63.53125 11.757812 63.476562 11.757812 L 61.761719 11.757812 C 61.714844 11.757812 61.675781 11.746094 61.644531 11.726562 C 61.609375 11.707031 61.582031 11.671875 61.558594 11.617188 Z M 61.550781 11.570312 "/>
</g>
</svg>
